<?xml version="1.0" encoding="utf-8"?>
<!-- Generator: Adobe Illustrator 21.0.2, SVG Export Plug-In . SVG Version: 6.00 Build 0)  -->
<svg version="1.1" id="Layer_1" xmlns="http://www.w3.org/2000/svg" xmlns:xlink="http://www.w3.org/1999/xlink" x="0px" y="0px"
	 viewBox="0 0 512 512" style="enable-background:new 0 0 512 512;" xml:space="preserve">
<style type="text/css">
	.st0{fill:#E6EAEA;}
	.st1{fill:#356CDB;}
	.st2{fill:#EA592D;}
	.st3{fill:#E0DB2D;}
	.st4{fill:#CDD4D5;}
	.st5{fill:#4779F4;}
	.st6{fill:#FD6A33;}
	.st7{fill:#EDED2E;}
	.st8{fill:#365558;}
	.st9{fill:#C6C6C6;}
	.st10{fill:#D3D3D3;}
	.st11{fill:#FFFFFF;}
</style>
<path class="st0" d="M504,136.3H8c-4.4,0-8,3.6-8,8V504c0,4.4,3.6,8,8,8h496c4.4,0,8-3.6,8-8V144.3C512,139.9,508.4,136.3,504,136.3
	z"/>
<path class="st1" d="M311.6,162.5H46.5c-4.4,0-8,3.6-8,8v64.1c0,4.4,3.6,8,8,8h265.1c4.4,0,8-3.6,8-8v-64.1
	C319.6,166.1,316,162.5,311.6,162.5z"/>
<path class="st2" d="M384.3,269.4H46.5c-4.4,0-8,3.6-8,8v64.1c0,4.4,3.6,8,8,8h337.8c4.4,0,8-3.6,8-8v-64.1
	C392.3,273,388.7,269.4,384.3,269.4z"/>
<path class="st3" d="M448.4,376.3H46.5c-4.4,0-8,3.6-8,8v64.1c0,4.4,3.6,8,8,8h401.9c4.4,0,8-3.6,8-8v-64.1
	C456.4,379.8,452.8,376.3,448.4,376.3z"/>
<path class="st4" d="M8,136.3c-4.4,0-8,3.6-8,8V504c0,4.4,3.6,8,8,8h248V136.3H8z"/>
<path class="st5" d="M46.5,162.5c-4.4,0-8,3.6-8,8v64.1c0,4.4,3.6,8,8,8H256v-80.2L46.5,162.5L46.5,162.5z"/>
<path class="st6" d="M46.5,269.4c-4.4,0-8,3.6-8,8v64.1c0,4.4,3.6,8,8,8H256v-80.2L46.5,269.4L46.5,269.4z"/>
<path class="st7" d="M46.5,376.3c-4.4,0-8,3.6-8,8v64.1c0,4.4,3.6,8,8,8H256v-80.2L46.5,376.3L46.5,376.3z"/>
<path class="st8" d="M256,512c-4.4,0-8-3.6-8-8V119.2c0-4.4,3.6-8,8-8c4.4,0,8,3.6,8,8V504C264,508.4,260.4,512,256,512z"/>
<path class="st9" d="M307.3,0H200.4c-4.4,0-8,3.6-8,8v75.6c0,2.7,1.4,5.3,3.7,6.8l55.6,35.6c1.3,0.8,2.8,1.3,4.3,1.3
	c1.6,0,3.2-0.5,4.6-1.4l51.3-35.6c2.2-1.5,3.4-4,3.4-6.6V8C315.3,3.6,311.7,0,307.3,0z"/>
<path class="st10" d="M200.4,0c-4.4,0-8,3.6-8,8v75.6c0,2.7,1.4,5.3,3.7,6.8l55.6,35.6c1.3,0.8,2.8,1.3,4.3,1.3V0H200.4z"/>
<path class="st11" d="M273.1,71.6c-4.4,0-8-3.6-8-8V33.7c0-4.4,3.6-8,8-8s8,3.6,8,8v29.9C281.1,68,277.5,71.6,273.1,71.6z"/>
</svg>
